<svg xmlns="http://www.w3.org/2000/svg" xmlns:xlink="http://www.w3.org/1999/xlink" id="Layer_1" x="0" y="0" enable-background="new 0 0 155.9 155.9" version="1.1" viewBox="0 0 155.9 155.9" xml:space="preserve"><circle cx="62.7" cy="28" r="9.6" fill="none" stroke="#FFF" stroke-miterlimit="10" stroke-width="4"/><circle cx="122" cy="128.8" r="9.6" fill="none" stroke="#FFF" stroke-miterlimit="10" stroke-width="4"/><path fill="#FFF" d="M44.5,49.9l-2-5L4.1,112.4c0,0,24.2,8.3,48-32.5l-1.5-5.4c0,0-18.6,35.8-41.1,35.4L44.5,49.9z"/><path fill="#FFF" d="M23.3,94.2l13.2-21.2C36.5,72.9,38.7,89.1,23.3,94.2z"/><path fill="none" stroke="#FFF" stroke-miterlimit="10" stroke-width="4" d="M44.3,37.5c0,0-11.2-17.4,7.1-28.4S79,16.6,79,16.6	l61.3,102.1c0,0,10.7,17.3-7.6,27.6c-18.2,10.2-27.7-7.7-27.7-7.7L44.3,37.5z"/></svg>