<svg xmlns="http://www.w3.org/2000/svg" xmlns:xlink="http://www.w3.org/1999/xlink" id="Layer_1" x="0" y="0" enable-background="new 0 0 57 45" version="1.1" viewBox="0 0 57 45" xml:space="preserve"><path fill="none" fill-rule="evenodd" d="M394-338v-324l189,324H394z" clip-rule="evenodd"/><path fill="#FFF" d="M22.6,45c-1.8,0-3.4-0.7-4.7-2l-16-16.1C0.7,25.6,0,23.9,0,22.2c0-1.8,0.7-3.5,1.9-4.7l4.6-4.6	c1.3-1.3,2.9-2,4.7-2s3.4,0.7,4.7,2l6.7,6.8L40.1,2c1.3-1.3,2.9-2,4.7-2c1.8,0,3.4,0.7,4.7,2l4.6,4.6c2.6,2.6,2.6,6.9,0,9.5L27.3,43	C26.1,44.3,24.4,45,22.6,45z M11.2,14.5c-0.8,0-1.6,0.3-2.1,0.9L4.5,20c-0.6,0.6-0.9,1.3-0.9,2.2c0,0.8,0.3,1.6,0.9,2.2l16,16.1	c1.1,1.2,3.1,1.2,4.3,0l26.7-27c1.2-1.2,1.2-3.1,0-4.3l-4.6-4.6c-1.1-1.2-3.1-1.2-4.3,0L23.9,23.4c-0.7,0.7-1.8,0.7-2.6,0l-8-8.1	C12.8,14.8,12,14.5,11.2,14.5z"/></svg>